HIERARCHY
ROOT SpineBase
{
  OFFSET 0.000000 0.000000 0.000000
  CHANNELS 6 Xposition Yposition Zposition Zrotation Xrotation Yrotation
  JOINT SpineMid
  {
    OFFSET 0.000000 27.139923 0.000000
    CHANNELS 3 Zrotation Xrotation Yrotation
    JOINT SpineShoulder
    {
      OFFSET -0.081177 20.186974 -0.609867
      CHANNELS 3 Zrotation Xrotation Yrotation
      JOINT Neck
      {
        OFFSET -0.036791 6.697740 -0.481612
        CHANNELS 3 Zrotation Xrotation Yrotation
        JOINT Head
        {
          OFFSET -4.582952 12.073693 -1.228152
          CHANNELS 3 Zrotation Xrotation Yrotation
          End Site
          {
            OFFSET 0 0 0
          }
        }
      }
      JOINT ShoulderLeft
      {
        OFFSET -13.230114 -3.856536 5.874408
        CHANNELS 3 Zrotation Xrotation Yrotation
        JOINT ElbowLeft
        {
          OFFSET -1.408021 -17.760637 0.814896
          CHANNELS 3 Zrotation Xrotation Yrotation
          JOINT WristLeft
          {
            OFFSET 5.622895 -2.528245 -24.945570
            CHANNELS 3 Zrotation Xrotation Yrotation
            JOINT HandLeft
            {
              OFFSET 2.575993 0.650511 -4.459315
              CHANNELS 3 Zrotation Xrotation Yrotation
              JOINT HandTipLeft
              {
                OFFSET 1.598629 -0.305255 -2.580947
                CHANNELS 3 Zrotation Xrotation Yrotation
                End Site
                {
                  OFFSET 0 0 0
                }
              }
              JOINT ThumbLeft
              {
                OFFSET 5.367520 0.427385 -0.672145
                CHANNELS 3 Zrotation Xrotation Yrotation
                End Site
                {
                  OFFSET 0 0 0
                }
              }
            }
          }
        }
      }
      JOINT ShoulderRight
      {
        OFFSET 9.525132 -2.373611 -8.472315
        CHANNELS 3 Zrotation Xrotation Yrotation
        JOINT ElbowRight
        {
          OFFSET 7.843728 -19.039632 -2.598877
          CHANNELS 3 Zrotation Xrotation Yrotation
          JOINT WristRight
          {
            OFFSET -21.972596 -1.760091 -10.544871
            CHANNELS 3 Zrotation Xrotation Yrotation
            JOINT HandRight
            {
              OFFSET -3.188890 -0.562222 -0.440586
              CHANNELS 3 Zrotation Xrotation Yrotation
              JOINT HandTipRight
              {
                OFFSET -4.657817 -1.045156 1.970049
                CHANNELS 3 Zrotation Xrotation Yrotation
                End Site
                {
                  OFFSET 0 0 0
                }
              }
              JOINT ThumbRight
              {
                OFFSET -3.011080 -1.366187 0.106469
                CHANNELS 3 Zrotation Xrotation Yrotation
                End Site
                {
                  OFFSET 0 0 0
                }
              }
            }
          }
        }
      }
    }
  }
  JOINT HipLeft
  {
    OFFSET -5.347884 0.129174 -0.532009
    CHANNELS 3 Zrotation Xrotation Yrotation
    JOINT KneeLeft
    {
      OFFSET 4.061589 -33.461889 3.434196
      CHANNELS 3 Zrotation Xrotation Yrotation
      JOINT AnkleLeft
      {
        OFFSET 6.372755 -30.263313 5.624383
        CHANNELS 3 Zrotation Xrotation Yrotation
        JOINT FootLeft
        {
          OFFSET 1.386071 -6.688695 -6.375717
          CHANNELS 3 Zrotation Xrotation Yrotation
          End Site
          {
            OFFSET 0 0 0
          }
        }
      }
    }
  }
  JOINT HipRight
  {
    OFFSET 5.027266 1.344831 -5.738966
    CHANNELS 3 Zrotation Xrotation Yrotation
    JOINT KneeRight
    {
      OFFSET 6.094820 -33.061638 0.789126
      CHANNELS 3 Zrotation Xrotation Yrotation
      JOINT AnkleRight
      {
        OFFSET 0.642494 -33.078686 8.215569
        CHANNELS 3 Zrotation Xrotation Yrotation
        JOINT FootRight
        {
          OFFSET -4.438762 -3.597138 -7.985591
          CHANNELS 3 Zrotation Xrotation Yrotation
          End Site
          {
            OFFSET 0 0 0
          }
        }
      }
    }
  }
}
MOTION
Frames: 9
Frame Time: 0.033333
18.663542 71.287256 366.956022 -0.000000 0.000000 26.650617 -0.000000 0.000000 -26.650617 -0.000000 0.000000 0.000000 -0.000000 0.000000 0.000000 0.000000 0.000000 0.000000 -0.000000 0.000000 0.000000 -0.000000 0.000000 0.000000 -0.000000 0.000000 0.000000 -0.000000 0.000000 0.000000 0.000000 0.000000 0.000000 0.000000 0.000000 0.000000 -0.000000 0.000000 0.000000 -0.000000 0.000000 0.000000 -0.000000 0.000000 0.000000 -0.000000 0.000000 0.000000 0.000000 0.000000 0.000000 0.000000 0.000000 0.000000 -0.000000 0.000000 -26.650617 -0.000000 0.000000 0.000000 -0.000000 0.000000 0.000000 0.000000 0.000000 0.000000 -0.000000 0.000000 -26.650617 -0.000000 0.000000 0.000000 -0.000000 0.000000 0.000000 0.000000 0.000000 0.000000
18.670483 71.290062 366.946544 0.026411 0.056871 26.653751 -0.049117 -0.038979 -26.653781 -0.000000 0.000000 0.000000 -0.000000 0.000000 0.000000 0.000000 0.000000 0.000000 1.465073 3.255845 -0.233141 -1.329951 -2.401229 0.773043 -0.374135 0.028709 -6.057078 0.168980 -1.423573 4.319282 0.000000 0.000000 0.000000 0.000000 0.000000 0.000000 -0.000000 0.000000 0.000000 -0.000000 0.000000 0.000000 -7.964202 1.939320 -3.276218 6.084989 -2.148566 2.265852 0.000000 0.000000 0.000000 0.000000 0.000000 0.000000 -0.049117 -0.038979 -26.653781 -0.000000 0.000000 0.000000 -4.563933 -0.960043 4.181569 0.000000 0.000000 0.000000 -0.049117 -0.038979 -26.653781 -0.000000 0.000000 0.000000 -0.104695 0.624560 -0.530681 0.000000 0.000000 0.000000
18.674454 71.292906 366.938871 0.047084 0.107244 26.628783 -0.090158 -0.074764 -26.628886 -0.000000 0.000000 0.000000 -0.000000 0.000000 0.000000 0.000000 0.000000 0.000000 2.490637 6.201198 -0.514902 -2.209293 -4.663760 1.171236 -0.548929 0.319532 -11.434906 0.498334 -2.750123 8.168530 0.000000 0.000000 0.000000 0.000000 0.000000 0.000000 -0.324241 -0.942555 -0.347514 0.318562 0.944489 0.342222 -12.983350 3.414601 -5.249510 9.354945 -3.473673 2.824422 0.000000 0.000000 0.000000 0.000000 0.000000 0.000000 -0.090158 -0.074764 -26.628886 -0.000000 0.000000 0.000000 -8.629961 -2.389892 7.832475 0.000000 0.000000 0.000000 -0.090158 -0.074764 -26.628886 0.959659 -0.086655 0.237310 -1.175349 1.401658 -1.327794 0.000000 0.000000 0.000000
18.675454 71.295788 366.933001 0.062020 0.151118 26.575774 -0.123075 -0.107405 -26.575971 -0.000000 0.000000 0.000000 -0.000000 0.000000 0.000000 0.000000 0.000000 0.000000 3.064175 8.819846 -0.800860 -2.620464 -6.785972 1.206738 -0.506490 0.828733 -15.716908 0.883263 -3.924079 11.198886 0.000000 0.000000 0.000000 0.000000 0.000000 0.000000 -0.345511 -1.438454 -0.551430 0.331757 1.441688 0.542919 -16.219324 4.475677 -6.499715 10.862876 -4.287053 2.037398 0.000000 0.000000 0.000000 0.000000 0.000000 0.000000 -0.123075 -0.107405 -26.575971 -0.000000 0.000000 0.000000 -11.803044 -4.100424 10.575554 0.000000 0.000000 0.000000 -0.123075 -0.107405 -26.575971 1.289330 -0.040572 0.319807 -1.624970 2.099417 -1.998050 0.000000 0.000000 0.000000
18.673483 71.298707 366.928935 0.071219 0.188496 26.494717 -0.147831 -0.136927 -26.495011 -0.000000 0.000000 0.000000 -0.000000 0.000000 0.000000 0.000000 0.000000 0.000000 3.175112 11.107240 -1.053397 -2.552381 -8.777528 0.886751 -0.261925 1.522125 -18.504812 1.204320 -4.921094 13.072740 0.000000 0.000000 0.000000 0.000000 0.000000 0.000000 -0.271654 -1.950230 -0.773595 0.245446 1.953700 0.764786 -18.301588 5.214828 -7.322104 11.223389 -4.674855 0.111332 0.000000 0.000000 0.000000 0.000000 0.000000 0.000000 -0.147831 -0.136927 -26.495011 -0.000000 0.000000 0.000000 -13.782864 -5.857555 12.131488 0.000000 0.000000 0.000000 -0.147831 -0.136927 -26.495011 1.512915 0.065393 0.376138 -1.973953 2.783776 -2.665143 0.000000 0.000000 0.000000
18.668540 71.301664 366.926674 0.074682 0.219378 26.385535 -0.164396 -0.163334 -26.385912 -0.000000 0.000000 0.000000 -0.000000 0.000000 0.000000 0.000000 0.000000 0.000000 2.813860 13.064724 -1.242290 -1.999001 -10.653850 0.212231 0.143025 2.388859 -19.448735 1.351291 -5.744135 13.492713 0.000000 0.000000 0.000000 0.000000 0.000000 0.000000 -0.102230 -2.477471 -1.012389 0.916783 2.116951 0.527540 -20.478117 5.900255 -7.319097 10.809368 -4.632390 -2.845375 0.000000 0.000000 0.000000 0.000000 0.000000 0.000000 -0.164396 -0.163334 -26.385912 -0.000000 0.000000 0.000000 -14.371192 -7.461792 12.325031 0.000000 0.000000 0.000000 -0.164396 -0.163334 -26.385912 1.628040 0.230439 0.405665 -2.218169 3.447256 -3.323716 0.000000 0.000000 0.000000
18.656678 71.305056 366.927107 0.069251 0.241018 26.245171 -0.168694 -0.185547 -26.245589 -0.000000 0.000000 0.000000 0.653346 0.455362 0.236295 0.000000 0.000000 0.000000 1.756230 15.686951 -1.423470 -0.620613 -13.428228 -1.319786 -0.189162 2.331504 -16.308286 1.806864 -4.029373 10.953200 0.000000 0.000000 0.000000 0.000000 0.000000 0.000000 0.276522 -3.170987 -1.340442 0.910228 2.668441 0.178379 -23.012317 8.268945 -11.809399 9.468604 -4.298880 -7.836606 0.000000 0.000000 0.000000 0.000000 0.000000 0.000000 -0.168694 -0.185547 -26.245589 -0.000000 0.000000 0.000000 -11.349448 -4.396828 10.055812 0.000000 0.000000 0.000000 -0.168694 -0.185547 -26.245589 1.641654 0.606281 0.411270 -2.606447 5.386498 -4.957237 0.000000 0.000000 0.000000
18.639486 71.322293 366.864226 0.080156 0.272245 25.735411 -0.190419 -0.210435 -25.735951 -0.000000 0.000000 0.000000 0.710429 0.596883 0.294596 0.000000 0.000000 0.000000 0.945081 19.025633 -1.650990 0.595939 -17.189338 -3.406113 0.704049 4.744098 -15.131609 0.775804 -7.181754 14.187050 0.000000 0.000000 0.000000 0.000000 0.000000 0.000000 0.657453 -3.869985 -1.666076 0.313997 3.438524 0.602561 -20.162233 5.883870 -7.450663 7.541087 -2.717899 -12.235771 0.000000 0.000000 0.000000 0.000000 0.000000 0.000000 -0.190419 -0.210435 -25.735951 -0.000000 0.000000 0.000000 -16.066717 -13.459869 12.424403 0.000000 0.000000 0.000000 -0.190419 -0.210435 -25.735951 1.331090 1.016217 0.339213 -2.634176 7.539574 -6.693535 0.000000 0.000000 0.000000
18.634576 71.322426 366.881934 0.052510 0.288237 25.714185 -0.172372 -0.236909 -25.714674 -0.000000 0.000000 0.000000 0.847622 0.522466 0.280021 0.000000 0.000000 0.000000 -1.338795 18.188920 -1.309669 2.998445 -16.964722 -5.644155 0.341007 4.594485 -5.662902 0.158909 -6.304060 4.051309 0.000000 0.000000 0.000000 0.000000 0.000000 0.000000 1.118041 -4.400570 -1.925623 -0.411945 4.078849 0.623433 -17.805531 3.604481 -2.497153 6.879290 -1.428797 -15.297048 0.000000 0.000000 0.000000 0.000000 0.000000 0.000000 -0.172372 -0.236909 -25.714674 -0.000000 0.000000 0.000000 -15.307846 -20.800491 9.379623 0.000000 0.000000 0.000000 -0.172372 -0.236909 -25.714674 1.443866 1.569886 0.370504 -2.455358 5.019553 -5.464463 0.000000 0.000000 0.000000
